<?xml version="1.0" encoding="UTF-8" standalone="no"?>
<!-- Created with Inkscape (http://www.inkscape.org/) -->

<svg
   xmlns:dc="http://purl.org/dc/elements/1.1/"
   xmlns:cc="http://creativecommons.org/ns#"
   xmlns:rdf="http://www.w3.org/1999/02/22-rdf-syntax-ns#"
   xmlns:svg="http://www.w3.org/2000/svg"
   xmlns="http://www.w3.org/2000/svg"
   xmlns:sodipodi="http://sodipodi.sourceforge.net/DTD/sodipodi-0.dtd"
   xmlns:inkscape="http://www.inkscape.org/namespaces/inkscape"
   version="1.1"
   id="svg1078"
   xml:space="preserve"
   width="816"
   height="816"
   viewBox="0 0 816 816"
   sodipodi:docname="free-stuff-yellow-sticker.svg"
   inkscape:version="0.92.4 (5da689c313, 2019-01-14)"><metadata
     id="metadata1084"><rdf:RDF><cc:Work
         rdf:about=""><dc:format>image/svg+xml</dc:format><dc:type
           rdf:resource="http://purl.org/dc/dcmitype/StillImage" /><dc:title></dc:title></cc:Work></rdf:RDF></metadata><defs
     id="defs1082"><clipPath
       clipPathUnits="userSpaceOnUse"
       id="clipPath1094"><path
         d="M 0,612 H 612 V 0 H 0 Z"
         id="path1092"
         inkscape:connector-curvature="0" /></clipPath><clipPath
       clipPathUnits="userSpaceOnUse"
       id="clipPath1102"><path
         d="M 64.9067,555.166 H 553.003 V 151.094 H 64.9067 Z"
         id="path1100"
         inkscape:connector-curvature="0" /></clipPath></defs><sodipodi:namedview
     pagecolor="#ffffff"
     bordercolor="#666666"
     borderopacity="1"
     objecttolerance="10"
     gridtolerance="10"
     guidetolerance="10"
     inkscape:pageopacity="0"
     inkscape:pageshadow="2"
     inkscape:window-width="1920"
     inkscape:window-height="1018"
     id="namedview1080"
     showgrid="false"
     inkscape:zoom="1.0404412"
     inkscape:cx="408"
     inkscape:cy="408"
     inkscape:window-x="-8"
     inkscape:window-y="-8"
     inkscape:window-maximized="1"
     inkscape:current-layer="g1086" /><g
     id="g1086"
     inkscape:groupmode="layer"
     inkscape:label="free-stuff-1--publicdomainvectors-image [Converted]"
     transform="matrix(1.3333333,0,0,-1.3333333,0,816)"><g
       id="g1088"><g
         id="g1090"
         clip-path="url(#clipPath1094)"><g
           id="g1096"><g
             id="g1098" /><g
             id="g1110"><g
               clip-path="url(#clipPath1102)"
               id="g1108"><path
                 d="m 533.427,433.968 c 8.23,-15.261 -8.77,-28.212 -6.468,-44.195 2.578,-17.648 28.736,-45.715 25.816,-64.27 -3.206,-19.958 -38.412,-20.507 -49.937,-37.79 -12.039,-18.16 -2.268,-64.479 -22.253,-80.463 -20.541,-16.293 -63.108,8.908 -89.363,0.701 -25.888,-8.158 -48.132,-56.746 -79.563,-56.857 -31.525,-0.041 -53.944,48.666 -80.146,56.877 -26.705,8.285 -70.267,-17.2 -91.414,-0.684 -20.656,16.264 -10.543,63.338 -23.002,81.889 -11.946,17.699 -48.584,18.598 -51.952,39.03 -3.054,19.011 24.236,47.294 26.92,65.253 2.393,16.258 -15.315,29.809 -6.734,45.216 8.009,14.298 36.08,24.909 46.554,36.469 10.076,11.143 7.639,26.204 20.019,34.56 11.757,7.918 34.275,7.874 47.415,13.901 12.413,5.708 18.745,18.24 31.889,21.773 12.459,3.321 29.207,-2.479 42.724,-0.812 12.792,1.597 24.598,10.798 37.726,10.597 13.111,-0.214 24.875,-9.773 37.595,-11.757 13.409,-2.071 29.978,3.186 42.27,-0.497 12.94,-3.895 19.16,-16.514 31.339,-22.521 12.864,-6.327 34.829,-6.919 46.267,-15.042 12.013,-8.565 9.657,-23.322 19.415,-34.542 10.136,-11.607 37.183,-22.655 44.883,-36.836"
                 style="fill:#231f20;fill-opacity:1;fill-rule:nonzero;stroke:none"
                 id="path1104"
                 inkscape:connector-curvature="0" /><path
                 d="m 294.544,546.56 c -6,-2.473 -12.319,-5.075 -19.477,-5.977 h -0.002 c -7.55,-0.949 -15.237,-0.063 -22.64,0.792 -7.324,0.843 -14.215,1.638 -18.959,0.354 -5.091,-1.386 -9.364,-5.356 -14.017,-9.678 -4.577,-4.252 -9.443,-8.776 -16.323,-11.989 -7.128,-3.332 -15.76,-5.035 -24.207,-6.699 -8.797,-1.734 -17.203,-3.395 -21.726,-6.5 -4.653,-3.202 -6.459,-8.8 -8.443,-14.925 -1.95,-6.046 -4.045,-12.515 -9.442,-18.651 -5.405,-6.141 -13.959,-11.564 -22.48,-16.962 -9.592,-6.08 -18.934,-12.012 -22.015,-17.749 -3.151,-5.919 -0.138,-12.524 3.164,-19.756 3.121,-6.838 6.454,-14.132 5.376,-22.851 -1.168,-9.378 -7.153,-19.967 -13.219,-30.681 -6.662,-11.785 -13.267,-23.459 -11.904,-30.727 1.409,-7.391 11.47,-11.73 22.298,-16.405 10.694,-4.607 21.922,-9.462 28.599,-18.902 6.797,-9.625 8.462,-23.863 10.154,-38.34 1.855,-15.934 3.72,-31.781 11.729,-37.859 7.682,-5.805 23.048,-2.854 39.145,0.236 16.011,3.084 32.374,6.221 46.855,1.828 14.011,-4.258 25.709,-16.021 37.438,-27.812 12.764,-12.84 25.284,-25.412 37.211,-25.412 11.909,0.031 24.388,12.617 37.081,25.437 11.636,11.75 23.218,23.443 37.057,27.654 14.272,4.336 30.353,1.186 46.036,-1.892 15.721,-3.082 30.688,-6.01 38.162,-0.301 7.771,5.975 9.575,21.576 11.384,37.26 1.642,14.24 3.251,28.242 9.83,37.662 6.465,9.218 17.302,13.889 27.605,18.308 10.417,4.475 20.077,8.622 21.428,15.847 1.304,7.098 -5.02,18.617 -11.427,30.255 -5.831,10.595 -11.596,21.075 -12.717,30.297 -1.043,8.575 2.166,15.679 5.173,22.328 3.171,7.032 6.08,13.45 3.044,19.314 -2.954,5.697 -11.96,11.708 -21.214,17.89 -8.231,5.5 -16.515,11.024 -21.747,17.197 -5.24,6.17 -7.276,12.597 -9.164,18.604 -1.919,6.088 -3.676,11.649 -8.204,14.932 -4.398,3.182 -12.586,5.05 -21.171,7.003 -8.252,1.88 -16.699,3.801 -23.685,7.296 -6.75,3.377 -11.533,7.997 -16.029,12.349 -4.58,4.424 -8.789,8.49 -13.805,10.02 -4.681,1.416 -11.484,0.837 -18.728,0.221 -7.329,-0.628 -14.948,-1.278 -22.441,-0.104 -7.117,1.118 -13.406,3.906 -19.385,6.558 -6.169,2.736 -11.898,5.28 -17.084,5.359 -5.19,0.084 -10.929,-2.282 -17.114,-4.829"
                 style="fill:#fff200;fill-opacity:1;fill-rule:nonzero;stroke:none"
                 id="path1106"
                 inkscape:connector-curvature="0" /></g></g></g><path
           d="m 140.544,438.095 c -8.254,-19.596 -11.612,-40.166 -10.002,-60.72 1.78,-22.512 9.499,-44.748 23.022,-65.055 14.62,-21.931 35.631,-41.045 62.074,-55.05 27.691,-14.659 60.16,-23.086 95.108,-23.137 34.838,-0.041 67.029,8.256 94.363,22.687 25.971,13.731 46.541,32.477 60.838,53.986 13.195,19.867 20.743,41.662 22.523,63.788 1.625,20.197 -1.57,40.495 -9.513,59.946 -13.932,34.039 -40.636,60.571 -71.336,77.794 -27.933,15.654 -61.444,24.924 -96.422,25.462 -35.088,0.523 -68.94,-7.79 -97.344,-22.746 -31.379,-16.555 -58.861,-42.733 -73.311,-76.955"
           style="fill:#231f20;fill-opacity:1;fill-rule:nonzero;stroke:none"
           id="path1112"
           inkscape:connector-curvature="0" /><path
           d="m 258.709,507.732 c 0.711,-0.534 1.017,-1.143 0.912,-1.828 -0.114,-0.736 -0.595,-1.363 -1.444,-1.886 -0.853,-0.522 -1.84,-0.776 -2.958,-0.763 -4.022,0.053 -8.046,0.11 -12.072,0.163 -5.322,0.069 -8.383,-1.671 -9.196,-5.286 -1.038,-4.627 -2.109,-9.379 -3.205,-14.262 4.965,-0.064 9.928,-0.126 14.889,-0.188 1.111,-0.014 2.038,-0.328 2.785,-0.938 0.748,-0.615 1.057,-1.316 0.921,-2.109 -0.148,-0.85 -0.681,-1.566 -1.609,-2.143 -0.93,-0.581 -2,-0.864 -3.204,-0.849 -5.044,0.063 -10.09,0.125 -15.139,0.187 -1.174,-5.218 -2.381,-10.586 -3.621,-16.113 -0.214,-0.942 -0.827,-1.735 -1.845,-2.378 -1.023,-0.645 -2.171,-0.961 -3.441,-0.947 -1.272,0.015 -2.264,0.356 -2.977,1.021 -0.711,0.663 -0.948,1.466 -0.713,2.408 3.218,12.964 6.226,25.076 9.041,36.419 0.784,3.142 2.924,5.686 6.407,7.657 3.441,1.947 7.423,2.875 11.973,2.816 3.963,-0.055 7.924,-0.112 11.884,-0.163 1.032,-0.018 1.903,-0.286 2.612,-0.818"
           style="fill:#fff200;fill-opacity:1;fill-rule:nonzero;stroke:none"
           id="path1114"
           inkscape:connector-curvature="0" /><path
           d="m 274.9,497.336 c 3.214,1.993 7.162,2.946 11.871,2.886 4.636,-0.064 8.432,-1.134 11.416,-3.23 3.018,-2.123 4.498,-4.817 4.416,-8.111 -0.092,-3.511 -1.974,-6.466 -5.686,-8.84 3.569,-2.285 5.321,-5.385 5.222,-9.352 -0.165,-6.456 -0.336,-13.14 -0.512,-20.063 -0.026,-0.991 -0.491,-1.842 -1.398,-2.551 -0.912,-0.711 -2.017,-1.062 -3.312,-1.048 -1.297,0.015 -2.375,0.389 -3.233,1.12 -0.855,0.729 -1.258,1.59 -1.209,2.581 0.337,6.924 0.663,13.609 0.979,20.066 0.195,4.076 -2.588,6.167 -8.354,6.348 -1.125,0.013 -2.096,0.336 -2.908,0.963 -0.809,0.625 -1.179,1.337 -1.112,2.134 0.07,0.844 0.538,1.549 1.399,2.116 0.859,0.564 1.876,0.839 3.058,0.824 2.581,-0.033 4.676,0.475 6.282,1.515 1.594,1.036 2.432,2.444 2.519,4.217 0.184,3.839 -2.468,5.76 -7.964,5.837 -2.499,0.032 -4.523,-0.443 -6.08,-1.429 -1.565,-0.992 -2.433,-2.362 -2.603,-4.117 -0.848,-8.858 -1.74,-18.169 -2.678,-27.969 -0.09,-0.941 -0.599,-1.734 -1.53,-2.376 -0.933,-0.644 -2.034,-0.959 -3.298,-0.945 -1.266,0.016 -2.295,0.355 -3.089,1.019 -0.79,0.663 -1.13,1.465 -1.017,2.405 1.167,9.802 2.277,19.114 3.333,27.973 0.399,3.343 2.236,6.008 5.488,8.027"
           style="fill:#fff200;fill-opacity:1;fill-rule:nonzero;stroke:none"
           id="path1116"
           inkscape:connector-curvature="0" /><path
           d="m 319.308,496.675 c 2.942,1.994 6.746,2.95 11.437,2.888 4.619,-0.064 8.53,-1.135 11.766,-3.231 3.271,-2.123 5.088,-4.817 5.424,-8.111 0.147,-1.442 0.295,-2.895 0.445,-4.36 0.126,-1.243 -0.556,-2.118 -2.048,-2.623 -4.106,-1.445 -8.249,-2.905 -12.427,-4.376 -0.585,-0.206 -1.213,-0.306 -1.884,-0.299 -1.197,0.016 -2.218,0.324 -3.068,0.923 -0.846,0.599 -1.286,1.323 -1.323,2.172 -0.056,1.265 0.679,2.146 2.198,2.65 3.385,1.15 6.744,2.296 10.082,3.431 -0.068,0.866 -0.136,1.729 -0.204,2.588 -0.302,3.788 -3.183,5.686 -8.657,5.76 -5.406,0.071 -8.047,-1.758 -7.928,-5.546 0.189,-5.839 0.383,-11.873 0.584,-18.111 0.143,-4.336 3.149,-6.574 9.024,-6.645 5.793,-0.066 8.591,2.101 8.405,6.434 -0.084,2.047 1.264,3.045 4.048,3.011 1.203,-0.014 2.248,-0.329 3.135,-0.942 0.89,-0.619 1.381,-1.369 1.473,-2.257 0.376,-3.711 -0.984,-6.81 -4.122,-9.269 -3.182,-2.491 -7.381,-3.719 -12.569,-3.66 -5.269,0.061 -9.615,1.375 -13.005,3.915 -3.347,2.509 -5.021,5.665 -5.056,9.433 -0.057,6.269 -0.111,12.332 -0.165,18.197 -0.028,3.344 1.459,6.009 4.435,8.028"
           style="fill:#fff200;fill-opacity:1;fill-rule:nonzero;stroke:none"
           id="path1118"
           inkscape:connector-curvature="0" /><path
           d="m 363.546,496.089 c 2.672,1.992 6.332,2.948 11.005,2.887 4.6,-0.062 8.626,-1.134 12.109,-3.229 3.523,-2.121 5.67,-4.815 6.424,-8.108 0.329,-1.441 0.661,-2.893 0.996,-4.358 0.285,-1.242 -0.283,-2.117 -1.703,-2.621 -3.898,-1.447 -7.831,-2.905 -11.799,-4.375 -0.555,-0.207 -1.166,-0.307 -1.836,-0.299 -1.19,0.015 -2.245,0.325 -3.166,0.923 -0.917,0.598 -1.447,1.321 -1.592,2.17 -0.216,1.264 0.402,2.147 1.849,2.649 3.218,1.151 6.414,2.294 9.588,3.43 -0.181,0.866 -0.357,1.729 -0.532,2.587 -0.783,3.786 -3.888,5.683 -9.34,5.757 -5.385,0.068 -7.779,-1.757 -7.178,-5.544 0.931,-5.836 1.891,-11.867 2.885,-18.102 0.692,-4.333 3.967,-6.568 9.815,-6.64 5.769,-0.065 8.278,2.101 7.538,6.431 -0.343,2.045 0.87,3.043 3.643,3.009 1.197,-0.014 2.275,-0.328 3.236,-0.942 0.965,-0.614 1.551,-1.366 1.751,-2.255 0.848,-3.708 -0.115,-6.803 -2.921,-9.263 -2.846,-2.488 -6.865,-3.716 -12.029,-3.658 -5.246,0.061 -9.733,1.373 -13.427,3.911 -3.645,2.508 -5.712,5.661 -6.225,9.427 -0.856,6.266 -1.682,12.325 -2.479,18.187 -0.457,3.343 0.685,6.008 3.388,8.026"
           style="fill:#fff200;fill-opacity:1;fill-rule:nonzero;stroke:none"
           id="path1120"
           inkscape:connector-curvature="0" /><path
           d="m 210.013,352.046 c -5.076,-3.99 -10.874,-5.994 -17.34,-5.953 -6.569,0.043 -11.413,2.088 -14.485,6.096 -3.027,3.942 -3.664,8.912 -1.98,14.84 0.395,1.394 1.24,2.562 2.538,3.501 1.288,0.94 2.678,1.401 4.168,1.388 1.396,-0.009 2.5,-0.493 3.323,-1.444 0.825,-0.957 1.067,-2.086 0.726,-3.392 -1.685,-6.821 1.049,-10.322 8.246,-10.378 3.357,-0.021 6.251,0.892 8.674,2.729 2.399,1.828 3.936,4.283 4.597,7.359 1.07,4.924 2.113,9.75 3.131,14.477 1.352,6.234 -1.379,9.318 -8.155,9.376 -5.978,0.052 -10.448,1.763 -13.38,5.097 -2.886,3.291 -3.597,7.429 -2.198,12.376 1.356,4.762 4.264,8.619 8.706,11.613 4.378,2.95 9.27,4.381 14.724,4.329 5.449,-0.056 9.649,-1.578 12.637,-4.595 3.028,-3.06 4.101,-6.948 3.18,-11.708 -0.225,-1.171 -0.894,-2.156 -2,-2.961 -1.11,-0.804 -2.359,-1.202 -3.743,-1.19 -3.2,0.032 -4.538,1.45 -4.024,4.241 1.013,5.474 -1.642,8.188 -7.953,8.251 -2.947,0.027 -5.46,-0.654 -7.551,-2.052 -2.105,-1.406 -3.494,-3.371 -4.155,-5.91 -1.489,-5.688 1.08,-8.614 7.729,-8.677 5.77,-0.051 10.202,-1.729 13.335,-5.068 3.175,-3.391 4.272,-7.731 3.236,-13.082 -0.92,-4.765 -1.865,-9.629 -2.829,-14.595 -1.133,-5.83 -4.17,-10.737 -9.157,-14.668"
           style="fill:#fff200;fill-opacity:1;fill-rule:nonzero;stroke:none"
           id="path1122"
           inkscape:connector-curvature="0" /><path
           d="m 278.069,390.961 c 0.912,-0.87 1.322,-1.94 1.233,-3.208 -0.492,-6.938 -1,-14.09 -1.523,-21.467 -0.413,-5.821 -2.837,-10.718 -7.314,-14.641 -4.555,-3.985 -10.074,-5.981 -16.505,-5.943 -6.533,0.046 -11.595,2.085 -15.137,6.084 -3.489,3.935 -4.726,8.894 -3.779,14.812 3.079,19.175 5.918,36.868 8.546,53.247 0.181,1.097 0.779,2.016 1.807,2.757 1.024,0.736 2.193,1.097 3.511,1.085 1.317,-0.014 2.374,-0.397 3.175,-1.151 0.803,-0.759 1.13,-1.685 0.979,-2.784 -0.368,-2.667 -0.741,-5.368 -1.12,-8.103 3.216,-0.03 6.431,-0.059 9.645,-0.09 1.352,-0.014 2.452,-0.415 3.296,-1.215 0.849,-0.801 1.215,-1.782 1.093,-2.943 -0.122,-1.17 -0.7,-2.154 -1.729,-2.958 -1.036,-0.805 -2.243,-1.201 -3.622,-1.19 -3.276,0.03 -6.553,0.058 -9.83,0.088 -1.6,-11.587 -3.29,-23.799 -5.069,-36.69 -0.937,-6.808 2.207,-10.303 9.461,-10.359 3.338,-0.02 6.104,0.89 8.286,2.725 2.165,1.821 3.385,4.276 3.673,7.347 0.688,7.379 1.355,14.533 2.001,21.473 0.12,1.269 0.705,2.33 1.758,3.185 1.049,0.852 2.278,1.272 3.689,1.26 1.411,-0.013 2.569,-0.451 3.475,-1.321"
           style="fill:#fff200;fill-opacity:1;fill-rule:nonzero;stroke:none"
           id="path1124"
           inkscape:connector-curvature="0" /><path
           d="m 332.448,409.715 c 0.966,-0.8 1.48,-1.778 1.539,-2.938 0.883,-17.274 1.838,-35.968 2.875,-56.268 0.076,-1.487 -0.39,-2.744 -1.399,-3.771 -1.014,-1.03 -2.296,-1.536 -3.844,-1.531 -2.227,0.017 -3.904,1.016 -5.027,2.997 -3.323,-1.954 -7.225,-2.918 -11.683,-2.891 -6.497,0.044 -11.776,2.08 -15.783,6.071 -3.945,3.929 -5.78,8.879 -5.558,14.786 0.548,14.483 1.065,28.113 1.552,40.964 0.044,1.16 0.546,2.13 1.505,2.914 0.955,0.78 2.105,1.162 3.455,1.151 1.348,-0.014 2.477,-0.417 3.389,-1.214 0.916,-0.801 1.366,-1.78 1.348,-2.941 -0.2,-12.808 -0.413,-26.391 -0.639,-40.821 -0.102,-6.795 3.448,-10.291 10.662,-10.34 3.321,-0.027 5.961,0.885 7.904,2.72 1.933,1.815 2.845,4.269 2.757,7.334 -0.419,14.469 -0.813,28.087 -1.186,40.929 -0.033,1.159 0.403,2.129 1.307,2.913 0.901,0.777 2.022,1.16 3.366,1.149 1.345,-0.013 2.496,-0.417 3.46,-1.213"
           style="fill:#fff200;fill-opacity:1;fill-rule:nonzero;stroke:none"
           id="path1126"
           inkscape:connector-curvature="0" /><path
           d="m 377.826,429.506 c 3.867,-2.822 6.202,-6.486 6.987,-11.035 0.436,-2.556 -0.865,-3.866 -3.918,-3.905 -1.315,-0.059 -2.508,0.303 -3.579,1.079 -1.066,0.773 -1.681,1.711 -1.846,2.814 -0.87,5.224 -4.314,7.817 -10.366,7.881 -2.827,0.027 -4.988,-0.631 -6.493,-1.979 -1.515,-1.361 -2.149,-3.227 -1.898,-5.617 0.282,-2.661 0.568,-5.355 0.856,-8.083 3.185,-0.032 6.369,-0.06 9.553,-0.09 1.34,-0.013 2.522,-0.417 3.551,-1.212 1.031,-0.8 1.63,-1.777 1.792,-2.935 0.161,-1.167 -0.168,-2.15 -0.992,-2.95 -0.827,-0.804 -1.925,-1.198 -3.291,-1.187 -3.244,0.029 -6.489,0.058 -9.735,0.088 1.704,-16.084 3.538,-33.385 5.516,-52.044 0.156,-1.488 -0.24,-2.742 -1.188,-3.769 -0.954,-1.029 -2.205,-1.54 -3.75,-1.53 -1.546,0.008 -2.896,0.537 -4.046,1.58 -1.147,1.04 -1.781,2.304 -1.906,3.79 -1.566,18.666 -3.019,35.972 -4.369,52.06 -0.812,0.007 -1.625,0.014 -2.437,0.022 -1.369,0.013 -2.573,0.431 -3.616,1.25 -1.035,0.819 -1.59,1.811 -1.67,2.979 -0.077,1.159 0.343,2.127 1.256,2.911 0.913,0.777 2.037,1.161 3.38,1.148 0.797,-0.007 1.594,-0.015 2.392,-0.022 -0.231,2.729 -0.458,5.424 -0.679,8.085 -0.382,4.554 1.028,8.185 4.19,10.94 3.119,2.716 7.321,4.033 12.634,3.978 5.312,-0.056 9.855,-1.463 13.672,-4.247"
           style="fill:#fff200;fill-opacity:1;fill-rule:nonzero;stroke:none"
           id="path1128"
           inkscape:connector-curvature="0" /><path
           d="m 425.949,429.014 c 4.174,-2.82 6.924,-6.479 8.233,-11.023 0.734,-2.553 -0.411,-3.858 -3.443,-3.901 -1.301,-0.056 -2.529,0.303 -3.683,1.077 -1.151,0.772 -1.873,1.709 -2.164,2.811 -1.473,5.218 -5.201,7.809 -11.226,7.873 -2.813,0.027 -4.885,-0.631 -6.226,-1.977 -1.348,-1.359 -1.764,-3.224 -1.233,-5.611 0.589,-2.659 1.185,-5.35 1.793,-8.075 3.171,-0.029 6.341,-0.059 9.509,-0.089 1.334,-0.012 2.556,-0.416 3.673,-1.21 1.119,-0.799 1.829,-1.774 2.123,-2.931 0.296,-1.166 0.081,-2.146 -0.644,-2.947 -0.728,-0.802 -1.774,-1.199 -3.133,-1.185 -3.229,0.028 -6.459,0.057 -9.689,0.087 3.565,-16.063 7.401,-33.336 11.542,-51.963 0.329,-1.484 0.086,-2.741 -0.741,-3.761 -0.829,-1.027 -2.013,-1.54 -3.549,-1.527 -1.538,0.01 -2.941,0.538 -4.207,1.577 -1.26,1.039 -2.039,2.299 -2.335,3.783 -3.732,18.633 -7.191,35.912 -10.408,51.978 -0.809,0.006 -1.618,0.014 -2.426,0.022 -1.362,0.013 -2.608,0.43 -3.74,1.248 -1.124,0.817 -1.793,1.81 -2.008,2.975 -0.21,1.158 0.093,2.126 0.909,2.908 0.817,0.776 1.891,1.158 3.227,1.147 0.793,-0.008 1.586,-0.016 2.38,-0.023 -0.545,2.726 -1.085,5.418 -1.617,8.077 -0.908,4.549 0.068,8.176 2.892,10.928 2.787,2.711 6.81,4.029 12.1,3.975 5.288,-0.056 9.97,-1.463 14.091,-4.243"
           style="fill:#fff200;fill-opacity:1;fill-rule:nonzero;stroke:none"
           id="path1130"
           inkscape:connector-curvature="0" /></g></g></g></svg>